<?xml version="1.0" encoding="utf-8"?>
<!-- Generator: Adobe Illustrator 24.1.2, SVG Export Plug-In . SVG Version: 6.00 Build 0)  -->
<svg version="1.1" id="Layer_1" xmlns:sodipodi="http://sodipodi.sourceforge.net/DTD/sodipodi-0.dtd"
	 xmlns="http://www.w3.org/2000/svg" xmlns:xlink="http://www.w3.org/1999/xlink" x="0px" y="0px" width="100px" height="100px"
	 viewBox="0 0 100 100" style="enable-background:new 0 0 100 100;" xml:space="preserve">
<g>
	<g>
		<path d="M38.9,41c2.7-3.2,6.6-5.2,11.1-5.2c1.3,0,2.6,0.2,3.8,0.5c7.9-32.9,2.4-39.9-1.3-18.6c-0.4-20.6-6.3-16-4.6,13.2
			c-4.9-32.4-12.5-32.5-5.3-3.9C32.1-0.6,26,4,40.5,33.2C25.1,8.3,17.8,8,29.3,25C14.1,9.7,13.7,18.4,38.9,41z"/>
		<path d="M58.9,38.8c20.6-27.7,17.9-35.9,5.4-16.5C73.2,1,64.8,3.5,54,36.3C55.8,36.8,57.4,37.7,58.9,38.8z"/>
		<path d="M36.3,46.1c0.5-1.8,1.4-3.5,2.6-5C11.1,20.5,2.9,23.2,22.4,35.7C1,26.8,3.5,35.2,36.3,46.1z"/>
		<path d="M41,61.1c-3.2-2.7-5.2-6.6-5.2-11.1c0-1.3,0.2-2.6,0.5-3.8c-33.1-7.9-39.9-2.4-18.7,1.3C-2.9,47.9,1.6,53.7,30.9,52
			c-32.4,4.9-32.5,12.5-3.9,5.3C-0.6,67.9,4,74,33.2,59.5C8.3,74.9,8,82.2,25,70.7C9.7,85.9,18.4,86.3,41,61.1z"/>
		<path d="M63.7,54c-0.5,1.8-1.4,3.5-2.6,5c27.7,20.5,35.9,17.7,16.5,5.3C99,73.2,96.5,64.8,63.7,54z"/>
		<path d="M69.1,48c32.4-4.9,32.5-12.5,3.9-5.3c27.5-10.5,23-16.7-6.3-2.1C91.7,25.1,92,17.8,75,29.3C90.2,14,81.5,13.5,59,38.9
			c3.2,2.7,5.2,6.6,5.2,11.1c0,1.3-0.2,2.6-0.5,3.8c32.9,7.9,39.9,2.4,18.6-1.3C102.9,52.1,98.4,46.3,69.1,48z"/>
		<path d="M41.1,61.2c-20.6,27.7-17.9,35.9-5.4,16.5C26.8,99,35.2,96.5,46,63.7C44.2,63.2,42.6,62.3,41.1,61.2z"/>
		<path d="M61.1,59c-2.7,3.2-6.6,5.2-11.1,5.2c-1.3,0-2.6-0.2-3.8-0.5c-7.9,32.9-2.4,39.9,1.3,18.6c0.4,20.6,6.3,16,4.6-13.2
			c4.9,32.3,12.5,32.5,5.3,3.9c10.5,27.5,16.7,23,2.1-6.3C74.9,91.7,82.2,92,70.7,75C85.9,90.3,86.3,81.6,61.1,59z"/>
	</g>
	<path d="M59.4,50c0,5.1-4.1,9.4-9.4,9.4c-5.1,0-9.4-4.1-9.4-9.4s4.1-9.4,9.4-9.4C55.1,40.6,59.4,44.9,59.4,50z"/>
</g>
</svg>
