<?xml version="1.0" encoding="utf-8"?>
<!-- Generator: Adobe Illustrator 24.1.2, SVG Export Plug-In . SVG Version: 6.00 Build 0)  -->
<svg version="1.1" id="Layer_1" xmlns:sodipodi="http://sodipodi.sourceforge.net/DTD/sodipodi-0.dtd"
	 xmlns="http://www.w3.org/2000/svg" xmlns:xlink="http://www.w3.org/1999/xlink" x="0px" y="0px" width="100px" height="100px"
	 viewBox="0 0 100 100" style="enable-background:new 0 0 100 100;" xml:space="preserve">
<g>
	<path d="M94.9,49.2c0,0-3.1-2.8-10.2-4.5c6.2-2.9,8.3-7.7,8.3-7.7s-3.7-1.9-11-1.6c5.2-4.5,5.9-9.6,5.9-9.6s-4.1-0.8-11,1.5
		c3.8-5.7,3.1-10.9,3.1-10.9s-4.1,0.4-10.2,4.4c2.1-6.5,0.1-11.3,0.1-11.3s-3.9,1.5-8.6,7c0.3-6.8-3-10.9-3-10.9S55,8,51.9,14.4
		C50.3,8,46.3,5,46.3,5s-2.6,3.2-3.8,10.4c-3.3-6-8.2-7.8-8.2-7.8s-1.6,3.8-0.9,11.1c-4.8-4.9-10-5.3-10-5.3s-0.5,4.1,2.2,10.9
		c-5.9-3.4-11.1-2.4-11.1-2.4s0.6,4.1,5,9.9c-6.6-1.7-11.3,0.6-11.3,0.6s1.7,3.8,7.5,8.2C9,40.8,5.1,44.4,5.1,44.4s2.7,3.2,9.5,5.9
		c-6.5,2-9.3,6.4-9.3,6.4s3.4,2.4,10.7,3.1c-5.8,3.7-7.2,8.7-7.2,8.7s3.9,1.3,11.1,0.1c-4.6,5.1-4.6,10.3-4.6,10.3s4.2,0.2,10.7-2.9
		c-3,6.1-1.6,11.2-1.6,11.2s4.1-0.9,9.5-5.7c-1.2,6.7,1.4,11.2,1.4,11.2s3.7-2,7.6-8.1c0.6,6.8,4.4,10.4,4.4,10.4s3-2.9,5.2-9.8
		c2.4,6.4,7.1,8.8,7.1,8.8s2.1-3.6,2.3-10.9c4.1,5.5,9.2,6.6,9.2,6.6s1.1-4-0.7-11.1c5.4,4.2,10.6,3.9,10.6,3.9s-0.1-4.2-3.7-10.5
		c6.3,2.6,11.3,0.9,11.3,0.9s-1.2-4-6.4-9.1c6.8,0.8,11.1-2.2,11.1-2.2s-2.2-3.5-8.6-7.1C91.6,53.3,94.9,49.2,94.9,49.2z M73.2,52.9
		c4.2,2.4,5.7,4.7,5.7,4.7s-2.9,2-7.4,1.5c3.5,3.4,4.2,6.1,4.2,6.1s-3.3,1.1-7.5-0.6c2.4,4.2,2.4,7,2.4,7s-3.5,0.2-7.1-2.6
		c1.2,4.7,0.5,7.4,0.5,7.4S60.7,75.7,58,72c-0.1,4.9-1.6,7.2-1.6,7.2s-3.1-1.6-4.7-5.9c-1.5,4.6-3.5,6.5-3.5,6.5s-2.5-2.4-2.9-6.9
		c-2.6,4.1-5.1,5.4-5.1,5.4s-1.8-3-1-7.5c-3.6,3.2-6.3,3.8-6.3,3.8S32,71.4,34,67.3c-4.4,2.1-7.1,1.9-7.1,1.9s0-3.5,3.1-6.9
		c-4.8,0.8-7.4-0.1-7.4-0.1s1-3.3,4.8-5.8c-4.8-0.5-7.1-2.1-7.1-2.1s1.8-3,6.2-4.3c-4.5-1.8-6.3-3.9-6.3-3.9s2.6-2.3,7.1-2.4
		c-3.9-2.9-5-5.5-5-5.5s3.1-1.6,7.5-0.4c-2.9-3.9-3.3-6.6-3.3-6.6s3.4-0.7,7.4,1.6c-1.8-4.5-1.4-7.3-1.4-7.3s3.5,0.3,6.6,3.5
		c-0.5-4.8,0.6-7.4,0.6-7.4S42.8,23,45,27c0.8-4.8,2.6-6.9,2.6-6.9s2.7,2,3.8,6.2c2-4.2,4.2-5.8,4.2-5.8s2.2,2.7,2,7.3
		c3.2-3.7,5.8-4.7,5.8-4.7s1.4,3.2,0,7.5c4-2.7,6.8-2.9,6.8-2.9s0.5,3.4-2.1,7.2c4.6-1.5,7.3-1,7.3-1s-0.5,3.4-3.9,6.4
		c4.9-0.2,7.3,1,7.3,1s-1.4,3.2-5.5,5.1c4.7,1.1,6.8,3,6.8,3S77.7,52.2,73.2,52.9z"/>
	<path d="M50,34.4c-8.6,0-15.6,7-15.6,15.6s7,15.6,15.6,15.6s15.6-7,15.6-15.6S58.6,34.4,50,34.4z M50,55.5c-3.1,0-5.5-2.5-5.5-5.5
		c0-3.1,2.5-5.5,5.5-5.5c3.1,0,5.5,2.5,5.5,5.5C55.5,53.1,53.1,55.5,50,55.5z"/>
</g>
</svg>
