<?xml version="1.0" encoding="utf-8"?>
<!-- Generator: Adobe Illustrator 24.1.2, SVG Export Plug-In . SVG Version: 6.00 Build 0)  -->
<svg version="1.1" id="Layer_1" xmlns:sodipodi="http://sodipodi.sourceforge.net/DTD/sodipodi-0.dtd"
	 xmlns="http://www.w3.org/2000/svg" xmlns:xlink="http://www.w3.org/1999/xlink" x="0px" y="0px" width="100px" height="100px"
	 viewBox="0 0 100 100" style="enable-background:new 0 0 100 100;" xml:space="preserve">
<g>
	<path d="M48.3,5.3c-0.8,0.8-1.9,1.8-2.5,2.4c-0.9,1-3.7,4.6-3.8,4.9c0,0.1,0.6,0.5,1.3,1c1.9,1.2,3.4,2.3,5,3.9
		c0.8,0.7,1.5,1.3,1.5,1.3s0.8-0.6,1.5-1.3c1.7-1.5,3.2-2.7,5-3.9c0.8-0.5,1.4-0.9,1.3-1c-0.1-0.3-2.9-4-3.9-5C52.8,6.3,50.2,4,50,4
		C49.9,4,49.1,4.6,48.3,5.3z"/>
	<path d="M29.8,8.7c-0.1,0.2-0.4,0.9-0.7,1.7c-0.9,2.2-1.4,3.8-2,6.7l-0.6,2.7l1.7,0.2c2.4,0.3,4.4,0.8,6.5,1.4l1.7,0.5l0.7-1.8
		c0.9-2.2,2.9-6.1,3.6-6.9C41,13.2,41,13,41,13c-0.2-0.3-4.7-2.5-6.1-3c-1.3-0.5-4.5-1.5-4.8-1.5C30,8.4,29.9,8.6,29.8,8.7z"/>
	<path d="M68.2,8.9c-2.6,0.7-4.4,1.5-6.8,2.7c-1.3,0.6-2.3,1.2-2.4,1.3c0,0.1,0,0.2,0.1,0.4c0.7,0.8,2.7,4.7,3.6,6.9l0.7,1.8
		l1.7-0.5c2.1-0.6,4.1-1,6.5-1.4l1.7-0.2l-0.6-2.8c-0.3-1.5-0.8-3.5-1.1-4.3c-0.7-2.1-1.7-4.3-1.9-4.3C69.8,8.5,69,8.7,68.2,8.9z"/>
	<path d="M48.7,20.9C47,22.8,45,25.4,45,25.7c0,0.1,0.6,0.5,1.2,0.9c1.2,0.8,1.8,1.3,3.2,2.5l0.6,0.5l0.6-0.5c1.3-1.2,2-1.7,3.2-2.5
		c0.7-0.4,1.2-0.9,1.2-0.9c0-0.5-4.6-5.9-5-5.9C49.9,19.8,49.3,20.3,48.7,20.9z"/>
	<path d="M18.1,20.5c-1.5,0.2-2.5,0.4-3.6,0.6l-0.6,0.1l0,1.2c0.1,3.1,0.4,5.1,1.8,10.1l0.1,0.5l1.3-0.4c2-0.7,5-1.4,6.7-1.7
		c0.9-0.1,1.7-0.3,1.7-0.3c0.1-0.1,0.1-0.7,0-2c-0.1-1.7-0.1-5.5,0.1-6c0-0.1,0.1-0.6,0.1-1.2l0.1-1l-1.5-0.1
		C22.2,20.3,19.8,20.3,18.1,20.5z"/>
	<path d="M75.1,20.4l-1,0.1l0.1,1.1c0,0.6,0.1,1.2,0.1,1.3c0.1,0.5,0.2,4.1,0.1,5.8c-0.1,1.3-0.1,1.9,0,2c0.1,0.1,0.9,0.2,1.7,0.3
		c1.8,0.3,4.7,1,6.7,1.7l1.3,0.4l0.1-0.5c1.3-5,1.7-7.1,1.8-10.1l0-1.2l-0.6-0.1C82.3,20.4,79.5,20.2,75.1,20.4z"/>
	<path d="M36.6,23.3c-0.3,0.8-0.8,2.5-1,3.5c-0.3,1.3-0.7,3.6-0.6,3.6c0.5,0,4.3,0.7,5.1,1c0.6,0.2,1,0.3,1.1,0.2
		c0-0.1,0.2-0.5,0.4-1c0.2-0.5,0.6-1.3,0.8-1.7c0.9-1.7,1.3-2.4,1.5-2.6c0.2-0.2,0.2-0.3,0-0.4c-0.6-0.4-2.5-1.4-3.4-1.8
		c-1-0.4-3.5-1.4-3.6-1.4C36.8,22.7,36.7,22.9,36.6,23.3z"/>
	<path d="M61.7,23.2c-2,0.8-2.9,1.2-4.2,1.9c-1.7,0.9-1.6,0.8-1.4,1.1c0.2,0.2,0.6,0.9,1.5,2.6c0.2,0.4,0.6,1.2,0.8,1.7
		c0.2,0.5,0.4,0.9,0.4,1c0.1,0.1,0.5-0.1,1.1-0.2c0.8-0.3,4.6-1,5.1-1c0.1,0-0.3-2.3-0.6-3.6c-0.5-1.8-1.2-4-1.3-4
		C63,22.7,62.4,22.9,61.7,23.2z"/>
	<path d="M49.3,31.2c-0.3,0.4-1,1.4-1.5,2.1l-0.9,1.4l0.8,0.7c0.4,0.4,1.1,1,1.5,1.4l0.8,0.8l0.8-0.8c0.4-0.4,1.1-1.1,1.5-1.4
		l0.8-0.7l-0.9-1.4c-0.8-1.3-2-2.9-2.2-2.9C49.9,30.5,49.7,30.8,49.3,31.2z"/>
	<path d="M28.6,30.8c-1.5,0.1-2.1,0.2-2.2,0.3c-0.3,0.2,0.4,4.1,1.2,7l0.2,0.7l1.2-0.4c1.5-0.5,2.9-0.8,4.1-1l0.9-0.2l0-1.7
		c0-1,0-2.4,0.1-3.2l0.1-1.5l-0.9-0.1C32.4,30.7,29.7,30.7,28.6,30.8z"/>
	<path d="M66.4,30.8l-0.6,0.1l0.1,1.6c0.1,0.9,0.1,2.3,0.1,3.2l0,1.6l0.9,0.2c1.2,0.2,2.6,0.5,4.1,1l1.2,0.4l0.2-0.7
		c0.7-2.3,1.5-6.8,1.3-7C73.4,30.9,67.9,30.7,66.4,30.8z"/>
	<path d="M41.3,33.3c-0.2,0.9-0.6,3.4-0.6,4c0,0.3,0.1,0.3,0.8,0.5c0.4,0.1,1.3,0.4,2,0.6c0.7,0.2,1.2,0.4,1.3,0.4
		c0,0,0.2-0.4,0.3-0.9c0.2-0.5,0.5-1.3,0.7-1.9l0.5-1l-1.3-0.8c-1.2-0.7-3-1.7-3.3-1.7C41.5,32.5,41.4,32.8,41.3,33.3z"/>
	<path d="M57.2,33c-0.6,0.3-1.6,0.8-2.2,1.2l-1.2,0.7l0.5,1c0.3,0.6,0.6,1.4,0.7,1.9c0.2,0.5,0.3,0.9,0.3,0.9c0,0,0.6-0.1,1.3-0.4
		s1.6-0.5,2-0.6c0.9-0.2,0.8-0.1,0.6-2.2c-0.3-1.8-0.6-3.2-0.8-3.2C58.3,32.5,57.8,32.7,57.2,33z"/>
	<path d="M12.8,35c-3,1.4-4.4,2.2-6.9,4l-1,0.7l0.8,1.4c0.4,0.8,1.2,2.1,1.7,2.9c1,1.5,4.3,5.5,4.4,5.4c0.1,0,0.6-0.5,1.3-1.2
		c1.6-1.6,3.3-3,5-4.1c0.8-0.6,1.5-1,1.5-1.1c0,0-0.4-0.8-0.9-1.7c-0.5-0.9-1.2-2.2-1.5-3c-0.6-1.4-1.7-4.1-1.7-4.4
		C15.6,33.8,15.3,33.9,12.8,35z"/>
	<path d="M84.4,34.1c0,0.3-1,2.9-1.6,4.3c-0.3,0.7-1,2.1-1.5,3c-0.5,0.9-0.9,1.7-0.9,1.7c0,0,0.7,0.5,1.5,1.1c1.7,1.2,3.3,2.5,5,4.1
		c0.6,0.6,1.2,1.1,1.3,1.2c0.2,0.1,3.4-3.9,4.4-5.4c0.5-0.8,1.3-2.1,1.7-2.9l0.8-1.4L94,39c-2.4-1.8-4.1-2.8-7.3-4.2
		C84.6,33.9,84.4,33.8,84.4,34.1z"/>
	<path d="M34.8,37.8c-0.1,0.2,0.4,2.2,0.9,3.7c0.4,1.2,0.5,1.3,0.8,1.3c0.3,0,3.5-0.5,3.8-0.5c0.1,0,0.1-0.2,0-0.5
		c-0.1-0.3-0.1-1.1-0.1-1.8c0-2,0.1-1.9-1.6-2.1C36.9,37.7,34.9,37.7,34.8,37.8z"/>
	<path d="M61.4,37.9c-1.5,0.2-1.5,0.1-1.5,2.1c0,0.7-0.1,1.5-0.1,1.8c-0.1,0.4-0.1,0.5,0,0.5c0.3,0.1,3.4,0.5,3.8,0.5
		c0.3,0,0.4-0.1,0.8-1.3c0.5-1.4,1-3.5,0.9-3.7C65.1,37.7,63,37.7,61.4,37.9z"/>
	<path d="M25.9,40.3c-0.7,0.3-1.6,0.7-2,0.9c-1,0.5-3.4,2-3.4,2.1c0,0.3,2.6,3.8,3.9,5.3l0.8,0.9l0.6-0.5c1.4-1.3,2.6-2.3,3.4-2.8
		c0.4-0.3,0.8-0.6,0.9-0.7c0.1-0.1-0.1-0.4-0.3-0.8c-0.6-1-1-2-1.7-3.5c-0.4-1-0.6-1.5-0.8-1.5C27.2,39.7,26.5,40,25.9,40.3z"/>
	<path d="M71.9,41.2c-0.6,1.5-1.1,2.5-1.7,3.5c-0.2,0.3-0.3,0.7-0.3,0.8c0,0.1,0.4,0.4,0.9,0.7c0.9,0.6,1.7,1.3,3,2.5l0.9,0.9
		l0.8-0.9c0.5-0.5,1.2-1.3,1.5-1.8c0.7-0.9,2.4-3.4,2.4-3.5c0-0.1-2.5-1.6-3.7-2.2c-1.2-0.6-3-1.4-3.2-1.4
		C72.5,39.7,72.2,40.4,71.9,41.2z"/>
	<path d="M34.3,44.1c-1.4,0.5-3.3,1.4-3.3,1.5c0,0.2,1,1.4,2.2,2.6l1.3,1.3l0.6-0.5c1-0.7,2.1-1.5,2.2-1.5c0.1,0,0.2-0.1,0.3-0.2
		c0.2-0.2,0.2-0.2-0.4-1.2c-0.3-0.5-0.8-1.3-1-1.8c-0.2-0.4-0.5-0.8-0.6-0.8C35.6,43.7,35,43.9,34.3,44.1z"/>
	<path d="M63.7,44.5c-0.2,0.5-0.7,1.3-1,1.8c-0.6,0.9-0.6,1-0.4,1.2c0.1,0.1,0.3,0.2,0.3,0.2c0.1,0,1.3,0.8,2.2,1.5l0.6,0.5l1.3-1.3
		c1.4-1.4,2.2-2.5,2.1-2.7c-0.2-0.3-4.2-1.9-4.7-1.9C64.2,43.7,63.9,44,63.7,44.5z"/>
	<path d="M24.4,51.4c-1.4,1.5-3.9,5-3.9,5.4c0,0.1,2.5,1.6,3.7,2.2c1.2,0.6,3,1.4,3.2,1.4c0.1,0,0.4-0.7,0.7-1.5
		c0.6-1.5,1.1-2.5,1.7-3.5c0.2-0.3,0.3-0.7,0.3-0.8c0-0.1-0.4-0.4-0.9-0.7c-0.9-0.6-1.6-1.2-3-2.5l-0.9-0.9L24.4,51.4z"/>
	<path d="M33.1,51.7c-1.4,1.4-2.2,2.5-2.1,2.7c0.2,0.3,4.2,1.9,4.7,1.9c0.1,0,0.3-0.4,0.5-0.8c0.2-0.4,0.7-1.3,1-1.8
		c0.6-0.9,0.6-1,0.4-1.2c-0.1-0.1-0.3-0.2-0.3-0.2c-0.1,0-1.3-0.8-2.2-1.5l-0.6-0.5L33.1,51.7z"/>
	<path d="M64.8,50.9c-1,0.8-2,1.5-2.1,1.5c-0.1,0-0.2,0.1-0.4,0.2c-0.2,0.2-0.2,0.2,0.4,1.2c0.3,0.5,0.8,1.3,1,1.8
		c0.2,0.5,0.5,0.8,0.5,0.8c0.5,0,4.5-1.7,4.7-1.9c0.1-0.2-0.7-1.2-2-2.6c-0.6-0.7-1.3-1.3-1.3-1.3C65.6,50.4,65.2,50.6,64.8,50.9z"
		/>
	<path d="M74.6,50.5c-0.2,0.4-2.5,2.4-3.5,3.1c-0.6,0.4-1,0.8-1.1,0.8c0,0.1,0.1,0.4,0.3,0.8c0.6,1,1,2,1.7,3.5
		c0.3,0.8,0.6,1.5,0.7,1.5c0.2,0,2.1-0.8,3.2-1.4c1.2-0.6,3.7-2.1,3.7-2.2c0-0.3-2.8-4.1-4.1-5.6C74.8,50.5,74.7,50.4,74.6,50.5z"/>
	<path d="M10.1,52.5c-1.8,2.2-3.2,4.1-4.3,6.3L5,60.3L6,61c2.4,1.8,4.1,2.8,7.3,4.2c2,0.9,2.2,1,2.2,0.7c0-0.3,1-3,1.7-4.4
		c0.3-0.8,1-2.1,1.5-3s0.9-1.6,0.9-1.7c0,0-0.7-0.5-1.5-1.1c-1.7-1.2-3.3-2.5-5-4.1c-0.6-0.6-1.2-1.1-1.3-1.2
		C11.8,50.5,11,51.4,10.1,52.5z"/>
	<path d="M86.9,51.7c-1.7,1.7-3.3,3-5,4.2c-0.8,0.6-1.5,1-1.5,1.1c0,0,0.4,0.8,0.9,1.7c0.5,0.9,1.2,2.2,1.5,3
		c0.6,1.4,1.7,4.1,1.7,4.3c0,0.2,0.2,0.2,2.2-0.7c3.2-1.4,4.9-2.4,7.3-4.2l1-0.8l-0.8-1.4c-1.1-2.2-2.5-4.1-4.3-6.3
		c-0.9-1.1-1.7-2-1.8-2C88.1,50.5,87.5,51,86.9,51.7z"/>
	<path d="M36.1,57.2c-0.4,0.7-1.5,4.7-1.3,4.9c0.1,0.1,2.1,0.1,3.7-0.1c1.6-0.2,1.5-0.1,1.6-2.1c0-0.7,0.1-1.5,0.1-1.8
		c0.1-0.4,0.1-0.5,0-0.5c-0.1,0-0.9-0.1-1.7-0.3c-0.9-0.1-1.7-0.3-1.9-0.3C36.3,57.1,36.1,57.1,36.1,57.2z"/>
	<path d="M62.8,57.3c-0.3,0.1-1.1,0.2-1.8,0.3c-1,0.1-1.3,0.2-1.3,0.4c0,0.1,0.1,1,0.1,2c0.1,1,0.2,1.9,0.2,1.9
		c0.3,0.3,5,0.5,5.1,0.3c0.1-0.2-0.4-2.2-0.9-3.7C63.8,57.1,63.8,57,62.8,57.3z"/>
	<path d="M27.6,61.9c-0.7,2.3-1.5,6.8-1.3,7c0.3,0.3,4.8,0.5,6.7,0.4l1.2-0.1l-0.1-1.5C34,66.8,34,65.4,34,64.4l0-1.7l-0.9-0.2
		c-1.2-0.2-2.6-0.5-4.1-1l-1.2-0.4L27.6,61.9z"/>
	<path d="M71,61.5c-1.4,0.5-2.9,0.8-4.1,1L66,62.7l0,1.6c0,0.9,0,2.3-0.1,3.2l-0.1,1.6l0.9,0.1c1.6,0.2,6,0,6.8-0.3
		c0.3-0.1,0.3-0.1-0.2-2.9c-0.2-1.4-1.1-4.8-1.2-4.8C72.1,61.1,71.6,61.3,71,61.5z"/>
	<path d="M43.7,61.5c-0.3,0.1-1.1,0.4-1.7,0.5c-0.6,0.1-1.2,0.3-1.3,0.4c-0.1,0.1-0.1,0.4,0.1,1.8c0.2,1.8,0.6,3.3,0.8,3.3
		c0.3,0,2.1-0.9,3.3-1.7l1.3-0.8l-0.5-1.2c-0.3-0.7-0.6-1.5-0.7-1.9c-0.1-0.4-0.3-0.7-0.4-0.7C44.5,61.2,44.1,61.3,43.7,61.5z"/>
	<path d="M55.1,61.9c-0.1,0.4-0.4,1.3-0.7,1.9l-0.5,1.2l1.3,0.8c1.2,0.7,3,1.7,3.3,1.7c0.2,0,0.5-1.5,0.8-3.2c0.3-2,0.3-1.9-0.6-2.2
		c-0.4-0.1-1.3-0.4-2-0.6c-0.7-0.2-1.2-0.4-1.3-0.4C55.3,61.2,55.2,61.5,55.1,61.9z"/>
	<path d="M49.2,63.2c-0.4,0.4-1.1,1-1.5,1.4l-0.8,0.7l0.9,1.4c0.8,1.3,2.1,2.9,2.2,2.9s1.4-1.6,2.2-2.9l0.9-1.4l-0.8-0.7
		c-0.4-0.4-1.1-1-1.5-1.4c-0.4-0.4-0.8-0.8-0.8-0.8C49.9,62.4,49.6,62.8,49.2,63.2z"/>
	<path d="M15.7,67.4c-1.3,5-1.7,7.1-1.8,10.1l0,1.2l0.6,0.1c3.2,0.7,6.2,0.9,9.9,0.7l1.5-0.1l-0.1-1c0-0.6-0.1-1.1-0.1-1.2
		c-0.1-0.5-0.2-4.3-0.1-6c0.1-1.3,0.1-1.9,0-2c-0.1-0.1-0.9-0.2-1.7-0.3c-1.8-0.3-4.7-1-6.7-1.7l-1.3-0.4L15.7,67.4z"/>
	<path d="M82.8,67.4c-1.9,0.7-4.9,1.4-6.7,1.7c-0.9,0.1-1.7,0.3-1.7,0.3c-0.1,0.1-0.1,0.7,0,2c0.1,1.7,0.1,5.4-0.1,5.8
		c0,0.1-0.1,0.6-0.1,1.2l-0.1,1.1l1.5,0.1c3.6,0.2,6.7,0,9.8-0.7l0.6-0.1l0-1.2c-0.1-2.5-0.4-4.9-1.2-7.8c-0.4-1.5-0.7-2.8-0.8-2.8
		C84.1,66.9,83.5,67.1,82.8,67.4z"/>
	<path d="M40,68.7c-0.8,0.3-4.5,1-5,1c-0.1,0,0.3,2.3,0.6,3.6c0.3,1.1,1.1,3.7,1.2,3.9c0.2,0.4,5.2-1.7,7.1-3c0.2-0.1,0.2-0.2,0-0.4
		c-0.1-0.1-0.4-0.6-0.6-1s-0.6-1-0.8-1.4c-0.2-0.3-0.6-1.1-0.8-1.8c-0.3-0.6-0.5-1.2-0.6-1.2C41,68.4,40.5,68.5,40,68.7z"/>
	<path d="M58.7,68.6c-0.5,1.4-0.8,1.9-1.5,3.3c-0.5,0.9-1,1.7-1.1,1.8c-0.2,0.3-0.3,0.2,1.3,1.1c1.2,0.7,2.8,1.4,4.5,2
		c1,0.4,1.3,0.4,1.4,0.3c0.1-0.2,0.9-2.8,1.2-3.9c0.3-1.3,0.7-3.6,0.6-3.6c-0.1,0-1-0.1-2.1-0.3c-1.7-0.3-3.1-0.6-3.9-0.9
		C58.9,68.3,58.8,68.4,58.7,68.6z"/>
	<path d="M48.9,71.3c-0.9,0.8-2.9,2.3-3.7,2.7c-0.2,0.1-0.3,0.2-0.3,0.3c0,0.6,4.5,5.9,5,5.9c0.5,0,5-5.4,5-5.9
		c0-0.1-0.1-0.2-0.3-0.3c-0.8-0.4-2.8-1.9-3.7-2.7c-0.5-0.5-1-0.9-1-0.9C49.9,70.4,49.5,70.8,48.9,71.3z"/>
	<path d="M34.8,78.5c-2,0.6-4.1,1-6.5,1.4l-1.7,0.2l0.6,2.7c0.3,1.5,0.7,3.2,0.9,3.8c0.4,1.2,1.8,4.6,1.9,4.8
		c0.1,0.1,2.6-0.5,4.7-1.3c1.5-0.6,6.1-2.8,6.3-3.1c0-0.1,0-0.2-0.1-0.4c-0.7-0.8-2.7-4.7-3.6-6.7c-0.4-0.9-0.7-1.7-0.7-1.8
		C36.5,78.1,35.9,78.2,34.8,78.5z"/>
	<path d="M62.8,79.7c-0.4,0.9-0.9,2.2-1.3,2.8c-0.8,1.5-2.1,3.8-2.4,4.1C59,86.8,59,87,59,87.1c0.2,0.3,4.8,2.5,6.3,3.1
		c2.1,0.8,4.6,1.4,4.7,1.3c0.2-0.2,1.5-3.6,1.9-4.8c0.2-0.6,0.6-2.3,0.9-3.8l0.6-2.7l-1.7-0.2c-2.4-0.3-4.4-0.8-6.5-1.4L63.5,78
		L62.8,79.7z"/>
	<path d="M48.6,82.3c-1.6,1.5-3.4,2.8-5.2,4c-0.8,0.5-1.4,0.9-1.3,1c0.1,0.3,2.9,4,3.9,5c1.2,1.3,3.8,3.6,4,3.6c0.3,0,2.9-2.4,4-3.6
		c1-1.1,3.8-4.8,3.9-5c0-0.1-0.6-0.5-1.3-1c-1.9-1.2-3.3-2.3-5-3.9c-0.8-0.7-1.5-1.3-1.5-1.3C50,81.1,49.3,81.7,48.6,82.3z"/>
</g>
</svg>
