<?xml version="1.0" encoding="utf-8"?>
<!-- Generator: Adobe Illustrator 24.1.2, SVG Export Plug-In . SVG Version: 6.00 Build 0)  -->
<svg version="1.1" id="Layer_1" xmlns:sodipodi="http://sodipodi.sourceforge.net/DTD/sodipodi-0.dtd"
	 xmlns="http://www.w3.org/2000/svg" xmlns:xlink="http://www.w3.org/1999/xlink" x="0px" y="0px" width="100px" height="100px"
	 viewBox="0 0 100 100" style="enable-background:new 0 0 100 100;" xml:space="preserve">
<style type="text/css">
	.st0{fill-rule:evenodd;clip-rule:evenodd;}
</style>
<g>
	<path class="st0" d="M91.5,50c0-2.6,11.9-4.6-5.3-4.7c16.6-4.5,4.5-3.6,3.9-6.1c-0.7-2.5,10.3-7.5-6.4-3.1
		c14.9-8.7,3.5-4.6,2.2-6.9c-1.3-2.2,8-9.9-7-1.4c12.1-12.3,2.2-5.4,0.3-7.2c-1.8-1.8,5.2-11.6-7.1,0.4c8.5-14.9,0.7-5.7-1.5-7
		c-2.2-1.3,2-12.6-6.7,2.3c4.3-16.6-0.8-5.7-3.3-6.4c-2.5-0.7-1.4-12.5-5.8,3.6c0-0.2,0-0.3,0-0.5c0-2.1-0.1-4.1-0.3-6.1
		c-0.1-0.5-0.1-1-0.3-1.5c-0.1-0.3-0.2-0.7-0.4-0.8c-0.2-0.2-0.5,0.1-0.6,0.2c-0.3,0.3-0.5,0.7-0.7,1.1c-0.4,0.7-0.8,1.4-1.3,2
		c-0.2,0.2-0.5,0.5-0.7,0.6c0,0-0.1,0-0.1,0l-0.1,0c-0.1,0-0.1,0-0.2,0c-0.1,0-0.1,0-0.2,0c0,0,0,0-0.1,0c0,0,0,0,0,0
		c0,0-0.1,0-0.1,0c0,0,0.1,0,0.1,0c-0.1,0-0.1-0.1-0.2-0.1c0,0,0,0,0.1,0c-0.1,0-0.1-0.1-0.2-0.1c0,0,0.1,0,0.1,0
		c-0.1-0.1-0.2-0.1-0.3-0.2c-0.2-0.1-0.3-0.3-0.4-0.4c-0.8-0.9-1.2-2-1.9-2.9c-0.1-0.1-0.1-0.1-0.2-0.2c-0.1-0.1-0.1-0.1-0.2-0.1
		c-0.6-0.4-0.9,0.7-1,1.1c-0.2,0.8-0.3,1.7-0.3,2.6c-0.1,1.7-0.2,3.4-0.2,5.1c-4.4-15.8-3.3-4.1-5.8-3.4c-2.5,0.7-7.7-10.2-3.3,6.4
		c-8.7-14.8-4.5-3.5-6.7-2.2c-2.2,1.3-10.1-7.9-1.5,7c-12.2-12.1-5.2-2.3-7.1-0.5c-1.8,1.8-11.8-5,0.3,7.2
		c-14.9-8.5-5.6-0.8-6.9,1.4c-1.3,2.2-12.7-1.8,2.2,6.9c-16.6-4.4-5.7,0.7-6.3,3.1c-0.7,2.5-12.7,1.5,3.9,6.1
		c-17.2,0.1-5.3,2.1-5.3,4.7c0,2.6-11.9,4.7,5.3,4.9c-16.6,4.5-4.6,3.4-3.9,5.9c0.7,2.5-10.3,7.7,6.4,3.3c-14.9,8.7-3.6,4.5-2.3,6.7
		c1.3,2.2-7.9,10.1,7,1.5c-12.1,12.2-2.3,5.3-0.5,7.1c1.8,1.8-5,11.8,7.2-0.3c-8.5,14.9-0.8,5.6,1.4,6.9c2.2,1.3-1.8,12.7,6.9-2.2
		c-4.3,16.6,0.7,5.7,3.1,6.3c2.5,0.7,1.5,12.7,6-3.8c0.1,17,2.3,5.2,4.9,5.2c2.6,0,4.6,11.9,4.7-5.3c4.6,16.6,3.6,4.5,6.1,3.9
		c2.5-0.7,7.5,10.3,3.1-6.3c8.7,14.9,4.6,3.5,6.9,2.2c2.2-1.3,9.9,8,1.4-6.9c12.2,12.1,5.4,2.1,7.2,0.3c1.8-1.8,11.6,5.2-0.5-7.1
		c14.9,8.5,5.7,0.7,7-1.5c1.3-2.2,12.6,2-2.2-6.7c16.6,4.3,5.7-0.8,6.4-3.3c0.7-2.5,12.7-1.4-3.9-5.9C103.4,54.7,91.5,52.5,91.5,50z
		 M50,62.9c-7.1,0-12.9-5.8-12.9-12.9S42.9,37.1,50,37.1S62.9,42.9,62.9,50S57.1,62.9,50,62.9z"/>
	<circle class="st0" cx="50" cy="50" r="3.1"/>
</g>
</svg>
