<?xml version="1.0" encoding="utf-8"?>
<!-- Generator: Adobe Illustrator 24.1.2, SVG Export Plug-In . SVG Version: 6.00 Build 0)  -->
<svg version="1.1" id="Layer_1" xmlns:sodipodi="http://sodipodi.sourceforge.net/DTD/sodipodi-0.dtd"
	 xmlns="http://www.w3.org/2000/svg" xmlns:xlink="http://www.w3.org/1999/xlink" x="0px" y="0px" width="100px" height="100px"
	 viewBox="0 0 100 100" style="enable-background:new 0 0 100 100;" xml:space="preserve">
<g>
	<path d="M22.1,44.6c0,0-13.9-12.9-16.2-2.8C5.4,44,4.7,51.1,22.1,44.6z"/>
	<path d="M21.3,53.6c0,0-17.3-7.8-16.2,2.5C5.3,58.4,6.9,65.3,21.3,53.6z"/>
	<path d="M25.2,64.4c0,0-18.8-2.6-14.9,7C11.2,73.5,14.7,79.7,25.2,64.4z"/>
	<path d="M31.4,71.3c0,0-17.8,6.7-9.8,13.2C23.3,85.9,29.4,89.7,31.4,71.3z"/>
	<path d="M40.1,76.4c0,0-15.4,11.1-6,15.3C36.2,92.6,43.1,94.7,40.1,76.4z"/>
	<path d="M26.1,35.1c0,0-8.6-16.9-14.2-8.3C10.6,28.7,7.5,35.2,26.1,35.1z"/>
	<path d="M31.3,27.8c0,0-1.6-18.9-10-13C19.4,16.1,14.1,20.9,31.3,27.8z"/>
	<path d="M40.7,22.7c0,0,5.5-18.2-4.5-15.8C34,7.5,27.3,10,40.7,22.7z"/>
	<path d="M51,21.5c0,0,10.7-15.7,0.4-16.4C49.2,4.9,42.1,5.3,51,21.5z"/>
	<path d="M60.5,23.8c0,0,15.4-11.1,6-15.3C64.4,7.6,57.6,5.5,60.5,23.8z"/>
	<path d="M68,72.6c0,0,18.1,5.6,10.6,12.6C76.8,86.8,71,90.9,68,72.6z"/>
	<path d="M60.8,76.4c0,0,14.2,12.6,4.4,15.8C63,93,56,94.3,60.8,76.4z"/>
	<path d="M50.4,78.5c0,0,10.1,16.1-0.2,16.4C47.9,95,40.8,94.4,50.4,78.5z"/>
	<path d="M74.6,65c0,0,19-1,14.3,8.2C87.9,75.2,83.8,81,74.6,65z"/>
	<path d="M78.5,54.2c0,0,18.2-5.5,15.8,4.6C93.7,61,91.2,67.7,78.5,54.2z"/>
	<path d="M78.6,44.1c0,0,15-11.6,16.4-1.4C95.2,45,95.3,52.1,78.6,44.1z"/>
	<path d="M74,34.8c0,0,10.8-15.6,15.2-6.3C90.1,30.6,92.3,37.4,74,34.8z"/>
	<path d="M68.5,27.8c0,0,1.8-18.9,10.1-12.9C80.5,16.2,85.7,21,68.5,27.8z"/>
	<g>
		<path d="M36.3,47.1c0,0-7.5-6.9-8.7-1.5C27.3,46.7,27,50.6,36.3,47.1z"/>
		<path d="M35.9,51.9c0,0-9.3-4.2-8.7,1.3C27.3,54.5,28.2,58.2,35.9,51.9z"/>
		<path d="M38,57.7c0,0-10.1-1.4-8,3.7C30.4,62.6,32.3,66,38,57.7z"/>
		<path d="M41.3,61.4c0,0-9.6,3.6-5.3,7.1C37,69.3,40.2,71.3,41.3,61.4z"/>
		<path d="M46,64.2c0,0-8.3,6-3.2,8.2C43.9,72.9,47.6,74,46,64.2z"/>
		<path d="M38.5,42c0,0-4.6-9.1-7.6-4.5C30.1,38.5,28.5,42,38.5,42z"/>
		<path d="M41.3,38c0,0-0.9-10.2-5.4-7C34.9,31.7,32,34.3,41.3,38z"/>
		<path d="M46.4,35.3c0,0,3-9.8-2.4-8.5C42.8,27.1,39.1,28.4,46.4,35.3z"/>
		<path d="M51.9,34.6c0,0,5.8-8.4,0.2-8.8C50.9,25.7,47.1,25.9,51.9,34.6z"/>
		<path d="M57,35.9c0,0,8.3-6,3.2-8.2C59.1,27.1,55.4,26,57,35.9z"/>
		<path d="M61,62.2c0,0,9.8,3,5.7,6.8C65.8,69.8,62.7,72,61,62.2z"/>
		<path d="M57.2,64.2c0,0,7.6,6.8,2.4,8.5C58.4,73.1,54.6,73.8,57.2,64.2z"/>
		<path d="M51.6,65.3c0,0,5.4,8.7-0.1,8.8C50.2,74.2,46.4,73.9,51.6,65.3z"/>
		<path d="M64.6,58c0,0,10.2-0.5,7.7,4.4C71.7,63.5,69.6,66.7,64.6,58z"/>
		<path d="M66.7,52.2c0,0,9.8-2.9,8.5,2.5C74.9,55.9,73.5,59.5,66.7,52.2z"/>
		<path d="M66.7,46.8c0,0,8.1-6.3,8.8-0.8C75.7,47.3,75.7,51.1,66.7,46.8z"/>
		<path d="M64.2,41.8c0,0,5.8-8.4,8.2-3.4C72.9,39.5,74.1,43.2,64.2,41.8z"/>
		<path d="M61.3,38c0,0,1-10.2,5.5-7C67.8,31.7,70.6,34.4,61.3,38z"/>
	</g>
	<g>
		<path d="M44.5,49.5c0,0-3.4-3.1-3.9-0.7C40.4,49.3,40.2,51.1,44.5,49.5z"/>
		<path d="M44.3,51.7c0,0-4.2-1.9-3.9,0.6C40.4,52.8,40.8,54.5,44.3,51.7z"/>
		<path d="M45.2,54.3c0,0-4.6-0.6-3.6,1.7C41.8,56.5,42.7,58,45.2,54.3z"/>
		<path d="M46.7,56c0,0-4.3,1.6-2.4,3.2C44.8,59.5,46.2,60.5,46.7,56z"/>
		<path d="M48.9,57.2c0,0-3.7,2.7-1.5,3.7C47.9,61.2,49.6,61.7,48.9,57.2z"/>
		<path d="M45.4,47.2c0,0-2.1-4.1-3.5-2C41.7,45.6,40.9,47.2,45.4,47.2z"/>
		<path d="M46.7,45.4c0,0-0.4-4.6-2.4-3.2C43.8,42.6,42.5,43.7,46.7,45.4z"/>
		<path d="M49,44.2c0,0,1.3-4.4-1.1-3.8C47.4,40.5,45.8,41.1,49,44.2z"/>
		<path d="M51.5,43.9c0,0,2.6-3.8,0.1-4C51.1,39.8,49.3,39.9,51.5,43.9z"/>
		<path d="M53.8,44.4c0,0,3.7-2.7,1.5-3.7C54.8,40.5,53.1,40,53.8,44.4z"/>
		<path d="M55.6,56.3c0,0,4.4,1.4,2.6,3.1C57.8,59.8,56.4,60.8,55.6,56.3z"/>
		<path d="M53.9,57.2c0,0,3.4,3.1,1.1,3.8C54.4,61.3,52.7,61.6,53.9,57.2z"/>
		<path d="M51.4,57.8c0,0,2.5,3.9-0.1,4C50.8,61.8,49,61.6,51.4,57.8z"/>
		<path d="M57.3,54.5c0,0,4.6-0.2,3.5,2C60.5,56.9,59.5,58.4,57.3,54.5z"/>
		<path d="M58.2,51.8c0,0,4.4-1.3,3.8,1.1C61.9,53.5,61.3,55.1,58.2,51.8z"/>
		<path d="M58.2,49.4c0,0,3.6-2.8,4-0.3C62.3,49.6,62.3,51.3,58.2,49.4z"/>
		<path d="M57.1,47.1c0,0,2.6-3.8,3.7-1.5C61,46.1,61.6,47.7,57.1,47.1z"/>
		<path d="M55.8,45.4c0,0,0.4-4.6,2.5-3.1C58.7,42.6,59.9,43.8,55.8,45.4z"/>
	</g>
</g>
</svg>
