<svg xmlns="http://www.w3.org/2000/svg" xmlns:xlink="http://www.w3.org/1999/xlink" version="1.1" x="0px" y="0px" viewBox="0 0 100 125" enable-background="new 0 0 100 100" xml:space="preserve"><path d="M50.5,5.5c-24.262,0-44,19.738-44,44s19.738,44,44,44s44-19.738,44-44S74.762,5.5,50.5,5.5z M50.5,85.5  c-19.852,0-36-16.15-36-36s16.148-36,36-36c19.85,0,36,16.15,36,36S70.35,85.5,50.5,85.5z M50.5,37.5c-6.617,0-12,5.383-12,12  s5.383,12,12,12s12-5.383,12-12S57.117,37.5,50.5,37.5z M50.5,53.5c-2.207,0-4-1.795-4-4s1.793-4,4-4c2.205,0,4,1.795,4,4  S52.705,53.5,50.5,53.5z"/><text x="0" y="115" fill="#000000" font-size="5px" font-weight="bold" font-family="'Helvetica Neue', Helvetica, Arial-Unicode, Arial, Sans-serif">Created by Sergey Demushkin</text><text x="0" y="120" fill="#000000" font-size="5px" font-weight="bold" font-family="'Helvetica Neue', Helvetica, Arial-Unicode, Arial, Sans-serif">from the Noun Project</text></svg>