<svg xmlns:dc="http://purl.org/dc/elements/1.1/" xmlns:cc="http://creativecommons.org/ns#" xmlns:rdf="http://www.w3.org/1999/02/22-rdf-syntax-ns#" xmlns:svg="http://www.w3.org/2000/svg" xmlns="http://www.w3.org/2000/svg" xmlns:sodipodi="http://sodipodi.sourceforge.net/DTD/sodipodi-0.dtd" xmlns:inkscape="http://www.inkscape.org/namespaces/inkscape" viewBox="0 0 8.4666665 10.583333625" version="1.1" x="0px" y="0px"><g transform="translate(0,-288.53333)"><path style="color:#000000;font-style:normal;font-variant:normal;font-weight:normal;font-stretch:normal;font-size:medium;line-height:normal;font-family:sans-serif;font-variant-ligatures:normal;font-variant-position:normal;font-variant-caps:normal;font-variant-numeric:normal;font-variant-alternates:normal;font-feature-settings:normal;text-indent:0;text-align:start;text-decoration:none;text-decoration-line:none;text-decoration-style:solid;text-decoration-color:#000000;letter-spacing:normal;word-spacing:normal;text-transform:none;writing-mode:lr-tb;direction:ltr;text-orientation:mixed;dominant-baseline:auto;baseline-shift:baseline;text-anchor:start;white-space:normal;shape-padding:0;clip-rule:nonzero;display:inline;overflow:visible;visibility:visible;opacity:1;isolation:auto;mix-blend-mode:normal;color-interpolation:sRGB;color-interpolation-filters:linearRGB;solid-color:#000000;solid-opacity:1;vector-effect:none;fill:#000000;fill-opacity:1;fill-rule:nonzero;stroke:none;stroke-width:2;stroke-linecap:round;stroke-linejoin:round;stroke-miterlimit:4;stroke-dasharray:none;stroke-dashoffset:0;stroke-opacity:1;color-rendering:auto;image-rendering:auto;shape-rendering:auto;text-rendering:auto;enable-background:accumulate" d="M 15.996094 2 C 8.2759571 2 2.0000074 8.2837677 2 16.003906 C 1.999985 23.724045 8.2759412 30 15.996094 30 C 23.716246 30 30.000015 23.724045 30 16.003906 C 29.999992 8.2837677 23.71623 2 15.996094 2 z M 15.996094 4 C 22.635351 4 27.999994 9.364637 28 16.003906 C 28.000013 22.643176 22.635365 28 15.996094 28 C 9.356823 28 4.0019399 22.643176 4.0019531 16.003906 C 4.0019592 9.364637 9.3568366 4 15.996094 4 z M 13.472656 7.9492188 A 1.0001001 1.0001001 0 0 0 12.785156 8.2519531 L 8.6152344 12.423828 A 1.0021986 1.0021986 0 0 0 10.03125 13.839844 L 14.203125 9.6621094 A 1.0001001 1.0001001 0 0 0 13.472656 7.9492188 z M 21.488281 9.0351562 A 1.0001001 1.0001001 0 0 0 20.794922 9.3378906 L 8.7988281 21.333984 A 1.0001001 1.0001001 0 1 0 10.208984 22.75 L 22.212891 10.748047 A 1.0001001 1.0001001 0 0 0 21.488281 9.0351562 z M 22.662109 17.863281 A 1.0001001 1.0001001 0 0 0 21.96875 18.166016 L 17.796875 22.337891 A 1.0001001 1.0001001 0 1 0 19.214844 23.748047 L 23.386719 19.576172 A 1.0001001 1.0001001 0 0 0 22.662109 17.863281 z " transform="matrix(0.26458333,0,0,0.26458333,0,288.53333)"/></g><text x="0" y="23.4666669" fill="#000000" font-size="5px" font-weight="bold" font-family="'Helvetica Neue', Helvetica, Arial-Unicode, Arial, Sans-serif">Created by bayu wibowo</text><text x="0" y="28.4666669" fill="#000000" font-size="5px" font-weight="bold" font-family="'Helvetica Neue', Helvetica, Arial-Unicode, Arial, Sans-serif">from the Noun Project</text></svg>